# xmcd
#
# Track frame offsets: 
#        150
#        11051
#        23602
#        35634
#        43678
#        59014
#        69004
#        85610
#        98538
#        109578
#        118992
#        127538
#        138013
#        162932
#        175562
#        187960
#
# Disc length: 2639 seconds
#
# Revision: 0
# Processed by: cddbd v1.5.2PL0 Copyright (c) Steve Scherf et al.
# Submitted via: ExactAudioCopy v1.1
#
DISCID=bb0a4d10
DTITLE=The Staple Singers - The Twenty Fifth Day Of December
DYEAR=1962
DGENRE=Gospel
TTITLE0=The Last Month Of The Year
TTITLE1=The Virgin Mary Had One Son
TTITLE2=Go Tell It On The Mountain
TTITLE3=Joy To The World
TTITLE4=Holy Unto The Lord
TTITLE5=The Savior Is Born
TTITLE6=Sweet Little Jesus Boy
TTITLE7=No Room At The Inn
TTITLE8=There Was A Star
TTITLE9=O Little Town Of Bethlehem
TTITLE10=Wasn't That A Mighty Day
TTITLE11=Silent Night
TTITLE12=Too Close
TTITLE13=This Same Jesus
TTITLE14=Gamblin' Man
TTITLE15=Use What You Got
EXTD=
EXTT0=
EXTT1=
EXTT2=
EXTT3=
EXTT4=
EXTT5=
EXTT6=
EXTT7=
EXTT8=
EXTT9=
EXTT10=
EXTT11=
EXTT12=
EXTT13=
EXTT14=
EXTT15=
PLAYORDER=
